<svg id="Layer_1" enable-background="new 0 0 512 512" height="512" viewBox="0 0 512 512" width="512" xmlns="http://www.w3.org/2000/svg"><g><path d="m256 22c-65.198 0-124.446 25.47-168.341 67l.617 1h131.233c-.995 5.916-1.5 11.963-1.5 17.996s.505 12.08 1.5 17.996h-162.068l-2.505 1c-9.752 13.979-18.092 29.016-24.794 44.915l1.304 1.379c12.536 3.392 23.747 10.258 32.498 19.941 2.687 2.972 6.258 4.609 10.056 4.609s7.369-1.637 10.056-4.609c12.82-14.186 31.132-22.322 50.238-22.322.293 0 .589.002.883.006 3.075.04 6.268.316 9.49.822l.534.084.362-.4c12.672-13.989 30.626-22.147 49.26-22.385.295-.004.589-.006.883-.006 19.106 0 37.418 8.136 50.238 22.322 2.687 2.972 6.258 4.609 10.056 4.609s7.369-1.637 10.056-4.609c12.82-14.186 31.132-22.322 50.238-22.322.293 0 .589.002.883.006 18.514.236 36.387 8.304 49.038 22.135l.352.384.517-.067c2.698-.353 5.23-.54 7.74-.572.295-.004.589-.006.883-.006 19.106 0 37.418 8.136 50.238 22.322 2.687 2.972 6.258 4.609 10.056 4.609s7.369-1.637 10.056-4.609c9.193-10.172 21.004-17.194 34.234-20.396l1.387-1.355c0 .001.001.003.002.004-37.232-87.853-124.258-149.481-225.68-149.481z" fill="#fd8087"/><path d="m500.975 265.055-1.01-1h-45.233c-4.963 0-9-4.038-9-9v-12.368c0-4.962 4.037-9 9-9h42.993l.871-1c-3.002-21.414-8.755-41.947-16.92-61.213-14.281 3.096-26.91 10.621-36.363 21.081-5.157 5.706-13.47 5.706-18.627 0-12.757-14.115-31.291-22.908-51.876-22.646-3.074.039-6.098.302-9.068.74 11.307 12.098 17.76 27.647 18.229 44.109.489 17.183-5.479 33.741-16.807 46.626-5.099 5.8-8.854 12.404-11.164 19.628l-8.95 27.988h148.95l1.575-1c2.247-13.332 3.425-27.028 3.425-41 0-.65-.018-1.296-.025-1.945z" fill="#f8f6f6"/><g><path d="m219.009 107.996c0-6.481.58-12.829 1.69-18.996h-133.034c-12.154 11.498-23.124 24.23-32.725 37.991h165.758c-1.109-6.166-1.689-12.514-1.689-18.995z" fill="#cecece"/><path d="m326.005 0c-59.645 0-107.996 48.351-107.996 107.995 0 18.37 4.592 35.665 12.682 50.809 5.617 3.39 10.776 7.587 15.253 12.542 2.687 2.972 6.258 4.609 10.056 4.609s7.369-1.637 10.056-4.609c12.82-14.186 31.132-22.322 50.238-22.322.293 0 .589.002.883.006 17.437.222 33.962 7.155 46.532 19.522 9.036 8.891 15.277 19.876 18.266 31.821 31.189-18.938 52.025-53.224 52.025-92.378 0-59.644-48.351-107.995-107.995-107.995z" fill="#9c9c9c"/><path d="m245.944 171.346c2.687 2.972 6.258 4.609 10.056 4.609s7.369-1.637 10.056-4.609c2.173-2.404 4.514-4.619 6.979-6.665-15.148-14.159-24.619-34.314-24.619-56.685 0-25.557 12.361-48.223 31.426-62.359 15.702-22.156 39.536-38.143 67.163-43.588-6.794-1.341-13.814-2.049-21-2.049-59.645 0-107.996 48.351-107.996 107.995 0 18.37 4.592 35.665 12.682 50.809 5.617 3.39 10.776 7.588 15.253 12.542z" fill="#868686"/><path d="m273.044 164.673c12.08-10.025 27.385-15.649 43.25-15.649.293 0 .589.002.883.006 17.437.222 33.962 7.155 46.532 19.522 1.518 1.494 2.954 3.049 4.313 4.655 21.396-13.814 35.572-37.85 35.572-65.212 0-42.851-34.738-77.589-77.589-77.589s-77.589 34.738-77.589 77.589c0 22.372 9.48 42.518 24.628 56.678z" fill="#d8ecfe"/><path d="m273.044 164.673c6.267-5.201 13.402-9.208 21.037-11.866-8.974-12.658-14.258-28.115-14.258-44.812 0-37.471 26.563-68.737 61.886-75.997-5.072-1.042-10.323-1.592-15.703-1.592-42.851 0-77.589 34.738-77.589 77.589-.001 22.372 9.479 42.518 24.627 56.678z" fill="#b3dafe"/><g><path d="m266.719 158.025 109.315-109.316c-5.745-4.853-12.2-8.886-19.194-11.919l-102.04 102.041c3.033 6.994 7.066 13.449 11.919 19.194z" fill="#eaf6ff"/></g><path d="m266.719 158.025 19.4-19.4c-3.344-7.771-5.449-16.197-6.079-25.033l-25.24 25.239c3.033 6.994 7.066 13.449 11.919 19.194z" fill="#8ac9fe"/><path d="m316.294 149.024c.293 0 .589.002.883.006 7.78.099 15.376 1.543 22.523 4.201l62.046-62.046c-1.764-7.981-4.754-15.497-8.767-22.346l-80.282 80.282c1.196-.064 2.395-.097 3.597-.097z" fill="#eaf6ff"/></g><path d="m164.95 309-8.951-27.987c-2.31-7.224-6.065-13.828-11.164-19.628-11.327-12.885-17.296-29.444-16.807-46.626.465-16.336 6.817-31.777 17.963-43.834-3.522-.613-7.127-.968-10.802-1.015-20.585-.262-39.119 8.531-51.876 22.646-5.157 5.706-13.47 5.706-18.627 0-9.049-10.012-21.012-17.325-34.544-20.649-12.325 29.239-19.142 61.369-19.142 95.093 0 13.972 1.18 27.668 3.428 41l1.572 1z" fill="#ebebeb"/><g fill="#fe99a0"><path d="m242.004 333.074-8.035 24.926h44.062l-8.035-24.926c-1.996-6.192-7.49-10.193-13.996-10.193s-12 4.001-13.996 10.193z"/><path d="m164.63 308h-150.196c2.863 16.992 7.477 33.388 13.646 49l4.558 1h147.982z"/><path d="m347.37 308-15.99 50h147.981l4.577-1c6.169-15.612 10.773-32.008 13.636-49z"/></g><path d="m331.7 357-18.969 59.315c-1.128 3.526-4.249 5.805-7.951 5.805 0 0 0 0-.001 0-3.693 0-6.812-2.272-7.944-5.787l-19.127-59.333h-43.417l-19.126 59.333c-1.133 3.515-4.251 5.787-7.944 5.787-3.703 0-6.824-2.279-7.952-5.805l-18.969-59.315h-152.239c35.873 90.779 124.405 155 227.939 155s192.066-64.221 227.939-155z" fill="#fd8087"/><g><path d="m384.971 214.73c-1.041-36.574-31.196-66.234-67.782-66.7-20.585-.262-39.119 8.531-51.876 22.646-5.157 5.706-13.47 5.706-18.627 0-12.757-14.115-31.291-22.908-51.876-22.646-36.586.466-66.741 30.126-67.782 66.7-.516 18.15 6.017 34.759 17.055 47.315 4.933 5.612 8.688 12.156 10.963 19.272l43.271 135.302c2.768 8.657 15.012 8.671 17.801.02l26.838-83.259c4.083-12.667 22.005-12.667 26.088 0l26.838 83.259c2.788 8.65 15.032 8.636 17.801-.02l43.271-135.302c2.276-7.116 6.031-13.661 10.963-19.272 11.037-12.556 17.571-29.165 17.054-47.315z" fill="#fff"/></g><g><path d="m206.047 281.317c-2.276-7.116-6.031-13.661-10.963-19.272-11.038-12.557-17.572-29.166-17.055-47.315.795-27.941 18.59-51.828 43.254-61.765-8.168-3.28-17.103-5.054-26.472-4.935-36.586.466-66.741 30.126-67.782 66.7-.517 18.15 6.017 34.759 17.055 47.315 4.933 5.612 8.688 12.156 10.963 19.272l43.271 135.302c2.768 8.657 15.012 8.671 17.801.02l16.668-51.711z" fill="#f8f6f6"/></g><g><path d="m445.732 255.056v-12.368c0-.448.044-.885.107-1.316h-43.971c-11.536 0-22.071-5.842-28.18-15.628l-10.298-16.497c-.334-.535-.676-1.06-1.027-1.58-13.573-20.027-35.537-21.154-51.28-13.387-15.519 7.655-28.703 26.48-20.978 49.723l3.776 11.362c1.046 3.146 3.974 5.137 7.116 5.137.784 0 1.582-.124 2.366-.385 3.931-1.306 6.059-5.552 4.752-9.482l-3.776-11.363c-4.92-14.801 3.175-26.506 13.379-31.54 9.185-4.532 23.138-5.063 32.226 8.347.249.367.491.74.726 1.115l10.294 16.491c8.867 14.206 24.158 22.686 40.904 22.686h43.971c-.063-.43-.107-.867-.107-1.315z" fill="#cecece"/><g><path d="m498.597 232.688h-43.865c-5.523 0-10 4.477-10 10v12.367c0 5.523 4.477 10 10 10h46.243c-.085-10.976-.894-21.779-2.378-32.367z" fill="#838383"/></g><path d="m474 253.367c-5.523 0-10-4.477-10-10v-10.679h-9.268c-5.523 0-10 4.477-10 10v12.367c0 5.523 4.477 10 10 10h46.243c-.031-3.919-.157-7.815-.37-11.688z" fill="#5a5a5a"/></g><g><g><path d="m201.5 462.5h-20c-4.143 0-7.5-3.358-7.5-7.5s3.357-7.5 7.5-7.5h20c4.143 0 7.5 3.358 7.5 7.5s-3.357 7.5-7.5 7.5z" fill="#fe99a0"/></g><g><path d="m330.5 462.5h-20c-4.143 0-7.5-3.358-7.5-7.5s3.357-7.5 7.5-7.5h20c4.143 0 7.5 3.358 7.5 7.5s-3.357 7.5-7.5 7.5z" fill="#fe99a0"/></g></g><g><g><path d="m137 417.5h-20c-4.143 0-7.5-3.358-7.5-7.5s3.357-7.5 7.5-7.5h20c4.143 0 7.5 3.358 7.5 7.5s-3.357 7.5-7.5 7.5z" fill="#fe99a0"/></g><g><path d="m266 417.5h-20c-4.143 0-7.5-3.358-7.5-7.5s3.357-7.5 7.5-7.5h20c4.143 0 7.5 3.358 7.5 7.5s-3.357 7.5-7.5 7.5z" fill="#fe99a0"/></g><g><g><path d="m395 417.5h-20c-4.143 0-7.5-3.358-7.5-7.5s3.357-7.5 7.5-7.5h20c4.143 0 7.5 3.358 7.5 7.5s-3.357 7.5-7.5 7.5z" fill="#fe99a0"/></g></g></g></g></svg>