<?xml version="1.0" standalone="no"?>
<!DOCTYPE svg PUBLIC "-//W3C//DTD SVG 20010904//EN"
 "http://www.w3.org/TR/2001/REC-SVG-20010904/DTD/svg10.dtd">
<svg version="1.0" xmlns="http://www.w3.org/2000/svg"
 width="700.000000pt" height="700.000000pt" viewBox="0 0 700.000000 700.000000"
 preserveAspectRatio="xMidYMid meet">
<metadata>
Created by potrace 1.14, written by Peter Selinger 2001-2017
</metadata>
<g transform="translate(0.000000,700.000000) scale(0.100000,-0.100000)"
fill="#000000" stroke="none">
<path d="M3230 6840 c-87 -8 -179 -19 -206 -24 -21 -4 -76 -13 -138 -22 -22
-3 -50 -10 -63 -15 -13 -5 -23 -7 -23 -4 0 2 -15 -1 -32 -6 -18 -5 -45 -11
-59 -14 -44 -8 -261 -73 -340 -101 -187 -67 -464 -200 -604 -288 -180 -115
-339 -230 -460 -336 -66 -57 -308 -301 -355 -359 -25 -29 -50 -59 -56 -65 -24
-26 -155 -207 -206 -286 -107 -166 -215 -372 -281 -537 -61 -149 -60 -147 -62
-153 -27 -92 -69 -219 -74 -230 -5 -8 -37 -29 -72 -46 -155 -76 -229 -204
-187 -325 19 -55 76 -125 135 -165 19 -14 21 -21 15 -82 -9 -86 -7 -507 1
-592 19 -176 58 -402 92 -520 8 -30 18 -66 21 -80 20 -95 116 -350 189 -505
21 -44 39 -82 40 -85 13 -51 230 -402 312 -505 13 -16 27 -34 31 -40 139 -186
412 -460 591 -595 18 -14 38 -30 45 -36 7 -6 68 -49 137 -96 252 -170 510
-298 799 -399 95 -33 311 -93 380 -105 25 -4 47 -8 50 -9 14 -3 78 -16 100
-20 14 -3 46 -7 71 -10 25 -3 55 -7 65 -9 152 -30 658 -27 859 4 33 5 78 11
100 15 22 3 74 12 115 21 41 9 86 18 100 20 14 3 32 7 40 10 8 3 25 8 38 10
34 7 254 73 277 84 11 5 58 23 105 41 180 67 426 194 615 318 210 137 340 244
541 445 366 367 640 808 799 1291 37 109 89 297 100 355 1 8 5 31 9 50 3 19 8
46 11 60 12 56 36 240 42 315 4 59 10 82 22 89 9 5 39 32 68 61 106 109 98
231 -24 354 -57 57 -64 69 -68 110 -5 48 -15 122 -21 156 -2 11 -7 40 -10 65
-3 25 -15 86 -25 135 -11 50 -22 101 -25 115 -8 42 -64 228 -90 304 -137 388
-362 776 -628 1086 -78 91 -342 344 -437 420 -266 212 -563 385 -854 499 -60
24 -119 47 -130 51 -66 29 -363 108 -482 130 -113 20 -222 36 -308 46 -81 8
-513 11 -595 4z"/>
</g>
</svg>
