<svg id="Capa_1" enable-background="new 0 0 512.003 512.003" height="512" viewBox="0 0 512.003 512.003" width="512" xmlns="http://www.w3.org/2000/svg"><g><path d="m453.591 116.992c-3.157-2.683-7.889-2.3-10.572.857-2.683 3.156-2.299 7.889.857 10.572 33.763 28.7 53.126 70.665 53.126 115.134v2.016c0 68.648-46.25 129.227-112.472 147.316l-70.824 19.347c-18.443 5.038-37.505 7.592-56.656 7.592-18.932 0-37.781-2.497-56.026-7.421l-73.104-19.731c-66.485-17.946-112.918-78.574-112.918-147.48-.267-48.09 21.476-92.412 59.653-121.603 37.912-29.003 86.076-38.473 132.143-25.987 32.45 8.796 66.75 8.78 99.19-.044 37.22-10.123 76.314-5.862 110.079 11.997 3.661 1.935 8.2.539 10.137-3.123s.538-8.2-3.123-10.137c-37.141-19.645-80.122-24.337-121.029-13.211-29.87 8.126-61.451 8.139-91.329.041-50.612-13.718-103.53-3.313-145.18 28.55-41.945 32.07-65.833 80.765-65.54 133.557 0 75.628 50.995 142.211 124.009 161.919l73.104 19.731c19.52 5.269 39.685 7.94 59.936 7.94 20.485 0 40.877-2.733 60.608-8.123l70.823-19.347c72.727-19.866 123.52-86.395 123.52-161.786v-2.016c0-48.875-21.29-95.005-58.412-126.56z"/><path d="m256.103 250.973c8.242 0 16.164 3.018 22.308 8.497.185.165.368.332.549.501 3.031 2.823 7.777 2.655 10.6-.375s2.655-7.777-.375-10.6c-.261-.243-.524-.483-.791-.721-8.895-7.933-20.363-12.301-32.292-12.301-25.237 0-46.027 19.362-48.312 44.008-17.044 2.592-32.762 6.626-46.993 12.11-26.231 10.109-46.161 24.671-59.406 43.324-24.814-18.247-41.014-45.735-44.808-76.49-.508-4.111-4.249-7.037-8.362-6.525-4.111.507-7.032 4.251-6.525 8.362 4.646 37.66 25.683 71.006 57.715 91.489 10.878 6.96 22.727 12.2 35.218 15.573l73.099 19.73c31.579 8.544 66.624 8.839 99.202-.146l70.817-19.349c11.409-3.034 24.836-8.933 35.291-15.773 12.347-7.959 23.151-17.951 32.116-29.702 16.812-21.896 26.65-50.955 26.109-79.031 0-39.449-17.975-75.81-49.315-99.758-31.096-23.939-71.146-31.721-109.203-21.399-35.669 9.889-76.265 10.023-112.678.049-36.182-10.31-79.362-2.442-109.771 21.592-25.636 19.612-42.628 47.801-47.844 79.374-.675 4.087 2.091 7.947 6.177 8.623 4.089.679 7.948-2.091 8.623-6.177 4.592-27.794 19.564-52.62 42.16-69.907 22.939-17.536 51.144-25.535 80.191-22.198v31.282c0 23.655 19.245 42.9 42.9 42.9h67c23.655 0 42.9-19.245 42.9-42.9v-31.262c28.726-3.604 57.075 4.08 80.436 21.941 27.596 21.088 43.424 53.105 43.424 87.841.507 24.007-7.826 50.275-23.033 69.931-6.456 8.462-14.006 15.867-22.474 22.125-13.22-18.71-33.148-33.317-59.4-43.46-26.834-10.368-58.916-15.625-95.353-15.625-11.367 0-22.31.512-32.802 1.531 3.012-15.415 16.617-27.084 32.902-27.084zm-61.5-85.94v-28.509c16.42 4.508 35.258 7.677 53.9 8.265v48.144h-26c-15.385 0-27.9-12.516-27.9-27.9zm94.9 27.9h-26v-48.125c17.138-.461 36.791-3.411 53.9-8.126v28.351c0 15.384-12.516 27.9-27.9 27.9zm108.629 150.79c-1.475.616-8.399 5.313-24.336 9.865l-70.82 19.35c-29.865 8.159-61.45 8.205-91.339.134l-73.099-19.73c-4.673-1.677-7.679-1.203-24.49-9.858 24.132-33.126 75.253-51.961 141.954-51.961 66.873 0 118.061 18.923 142.13 52.2z"/></g></svg>