<svg id="Layer_1" enable-background="new 0 0 511.836 511.836" height="512" viewBox="0 0 511.836 511.836" width="512" xmlns="http://www.w3.org/2000/svg"><g><path d="m282.882 142.71-27.746 12.508c-15.347 6.919-32.959 6.94-48.321.055l-28.072-12.578c-7.561-3.387-16.435-.004-19.822 7.556s-.004 16.435 7.556 19.822l28.071 12.577c23.182 10.388 49.759 10.357 72.918-.083l27.746-12.508c7.552-3.405 10.915-12.287 7.51-19.84-3.405-7.551-12.285-10.914-19.84-7.509z"/><path d="m438.401 165.415c-4.44-2.583-9.893-2.716-14.453-.351l-21.357 11.081v-11.185c0-4.762-2.262-9.242-6.094-12.07l-18.013-13.292v-16.153c0-8.284-6.716-15-15-15h-17.201l-5.616-35c-1.153-7.188-7.302-12.51-14.581-12.622-11.148-.178-22.219 1.166-32.903 3.973-40.792 10.716-83.916 10.716-124.71 0-10.684-2.807-21.748-4.152-32.903-3.973-62.707-.259-118.582 54.282-119.758 116.984-.801 21.006 3.822 41.902 13.372 60.438l36.313 72.812c6.848 13.732 11.025 28.444 12.415 43.726l10.76 118.359c4.601 45.749 67.418 53.191 82.92 10.129 7.108-22.306 37.207-97.819 60.121-101.024 9.917-.61 33.982 25.962 59.881 101.484 15.007 42.105 76.218 35.183 81.242-9.329l12.44-121.457c1.444-14.095 5.275-27.722 11.388-40.503l33.132-69.28c11.378-19.792 16.927-42.375 16.051-65.354-.197-5.133-3.006-9.81-7.446-12.393zm-34.851 63.204c-.204.35-.393.707-.567 1.072l-33.384 69.808c-7.604 15.902-12.371 32.855-14.167 50.39l-12.44 121.457c-1.424 12.601-18.759 14.586-23.02 2.655-11.898-35.435-46.625-126.438-90.027-121.701-19.584 1.156-37.997 17.725-56.289 50.653-13.194 23.752-23.823 51.454-30.416 70.511-4.62 12.812-23.332 10.575-24.692-3.037l-10.76-118.359c-1.729-19.012-6.925-37.314-15.445-54.398l-36.357-72.901c-.031-.063-.063-.125-.095-.188-7.214-13.97-10.707-29.749-10.101-45.63.876-47.174 43.065-88.335 90.239-88.132 8.421-.13 16.774.878 24.822 2.992 45.781 12.027 94.177 12.027 139.955 0 4.056-1.065 8.188-1.85 12.368-2.349l5.515 34.36c1.167 7.274 7.444 12.623 14.811 12.623h14.985v8.727c0 4.762 2.262 9.242 6.094 12.07l18.013 13.292v28.292c0 5.239 2.733 10.098 7.209 12.818 4.477 2.721 10.048 2.908 14.698.497l18.817-9.762c-2.068 8.478-5.343 16.638-9.766 24.24z"/><path d="m354.521 45.343c1.045 8.249 8.781 14.025 16.83 12.913 8.213-1.082 13.995-8.617 12.913-16.83l-3.738-28.383c-1.082-8.213-8.62-13.993-16.83-12.913-8.213 1.082-13.995 8.617-12.913 16.83z"/><path d="m421.286 67.666c6.517 5.014 15.962 3.839 21.032-2.77l17.427-22.713c5.042-6.572 3.803-15.989-2.77-21.032-6.573-5.042-15.99-3.803-21.032 2.77l-17.427 22.713c-5.043 6.573-3.803 15.989 2.77 21.032z"/><path d="m495.982 109.85c-1.081-8.213-8.618-13.991-16.83-12.913l-28.383 3.738c-19.687 3.445-15.854 31.559 3.917 29.743l28.383-3.738c8.214-1.082 13.995-8.617 12.913-16.83z"/></g></svg>