<svg id="_x31_" height="512" viewBox="0 0 24 24" width="512" xmlns="http://www.w3.org/2000/svg"><path d="m17.181 24c-1.213 0-2.257-.855-2.481-2.034l-1.118-5.877c-.143-.747-.808-1.289-1.582-1.289s-1.439.542-1.581 1.289l-1.118 5.876c-.225 1.18-1.268 2.035-2.482 2.035-1.293 0-2.372-.958-2.51-2.229l-.438-4.024c-.158-1.456-.468-2.898-.922-4.289l-.854-2.62c-.726-2.229-1.095-4.546-1.095-6.888 0-2.178 1.794-3.95 4-3.95 1.625 0 3.195.396 4.884 1.211 1.424.688 2.809.688 4.232 0 1.689-.815 3.259-1.211 4.799-1.211 2.291 0 4.085 1.772 4.085 3.95 0 2.341-.369 4.659-1.095 6.889l-.854 2.619c-.454 1.391-.764 2.833-.922 4.289l-.438 4.024c-.138 1.271-1.217 2.229-2.51 2.229zm-5.181-10.2c1.254 0 2.333.884 2.563 2.103l1.118 5.876c.135.707.766 1.221 1.5 1.221.781 0 1.433-.575 1.516-1.337l.438-4.024c.166-1.523.491-3.035.966-4.491l.854-2.619c.693-2.129 1.045-4.343 1.045-6.579 0-1.627-1.346-2.95-3-2.95-1.472 0-2.899.364-4.449 1.112-1.693.817-3.41.817-5.102 0-1.55-.748-2.977-1.112-4.364-1.112-1.739 0-3.085 1.323-3.085 2.95 0 2.236.352 4.45 1.046 6.579l.854 2.619c.475 1.456.8 2.967.965 4.49l.438 4.024c.083.763.735 1.338 1.516 1.338.734 0 1.364-.514 1.499-1.222l1.118-5.876c.231-1.218 1.31-2.102 2.564-2.102zm7.194 7.917h.01z"/><path d="m6.662 24c-.265 0-.486-.208-.499-.477l-.015-.32c-.261-5.533-.586-12.419 2.93-17.971.147-.234.456-.303.69-.155.233.147.303.457.155.69-3.347 5.285-3.03 11.996-2.776 17.389l.015.32c.013.276-.2.51-.476.523-.008.001-.017.001-.024.001z"/><path d="m7.5 10c-.075 0-.151-.017-.223-.053l-.212-.105c-1.273-.637-2.065-1.918-2.065-3.342 0-.276.224-.5.5-.5s.5.224.5.5c0 1.043.58 1.981 1.513 2.447l.211.105c.247.124.347.424.224.671-.089.176-.265.277-.448.277z"/><path d="m7.264 13h-.264c-.276 0-.5-.224-.5-.5s.224-.5.5-.5h.264c1.188 0 2.257-.661 2.789-1.724.124-.247.424-.346.671-.224.247.124.347.424.224.671-.703 1.405-2.114 2.277-3.684 2.277z"/><path d="m17.338 24c-.008 0-.016 0-.024 0-.276-.013-.489-.247-.476-.523l.015-.32c.254-5.393.571-12.104-2.776-17.389-.148-.233-.079-.542.155-.69.233-.147.542-.079.69.155 3.516 5.552 3.191 12.438 2.93 17.971l-.015.32c-.012.268-.233.476-.499.476z"/><path d="m16.5 10c-.184 0-.36-.101-.448-.276-.124-.247-.023-.547.224-.671l.211-.105c.933-.467 1.513-1.405 1.513-2.448 0-.276.224-.5.5-.5s.5.224.5.5c0 1.424-.792 2.705-2.065 3.342l-.211.105c-.072.036-.148.053-.224.053z"/><path d="m17 13h-.264c-1.57 0-2.981-.872-3.683-2.276-.124-.247-.023-.547.224-.671.247-.122.547-.023.671.224.532 1.063 1.6 1.724 2.789 1.724h.263c.276 0 .5.224.5.5s-.224.499-.5.499z"/></svg>